<svg xmlns="http://www.w3.org/2000/svg" width="159.215" height="37.917" viewBox="0 0 159.215 37.917">
  <g id="Grupo_36422" data-name="Grupo 36422" transform="translate(17869.5 22829)">
    <path id="Caminho_32794" data-name="Caminho 32794" d="M21.047,10.972c0-2.217,3.031-4.012,6.771-4.012s6.771,1.8,6.771,4.012-3.031,4.017-6.771,4.017-6.771-1.8-6.771-4.017m-4.91-.081a202.924,202.924,0,0,1,22.507,16.49L27.873,37.927Q17.308,27.41,10.585,21.46c2.616-5.339,4.556-8.93,5.551-10.569Zm-.111-6.608c3.75-.009,7.716.156,11.852.5A148.861,148.861,0,0,0,5.845,17.4C3.713,15.614,1.741,14.179,0,12.957A146.753,146.753,0,0,1,16.021,4.283Zm24.465.346L39.629,10.9a88.3,88.3,0,0,0-18.508-8.7Q25.826.517,27.855.01A82.352,82.352,0,0,1,40.49,4.634ZM27.9,18.893c6.444-4.78,12.317-8.717,18.209-11.469q4.014,2.046,9.637,5.5a127.881,127.881,0,0,0-11.332,9.2c-5.26-1.26-11.516-2.492-16.514-3.24Z" transform="translate(-17869.5 -22829.01)" fill="#333e7a"/>
    <path id="Caminho_32795" data-name="Caminho 32795" d="M126.68,39.388h2.92V34.367c1.069,0,1.46,0,1.939,1.69l.963,3.33h3.063l-1.281-4.058c-.461-1.479-.82-1.976-1.727-2.082a2.955,2.955,0,0,0,2.474-3.082c0-2.294-1.746-3.206-3.791-3.206h-4.556V39.383m2.81-10.323h.889c1.566,0,1.727,1.05,1.727,1.566a1.579,1.579,0,0,1-1.709,1.635h-.907V29.056Zm20.512,8.351a4.148,4.148,0,0,1-1.525.147c-.995,0-2.119-.58-2.119-2.4,0-.332,0-2.515,1.99-2.515a12.224,12.224,0,0,1,1.525.083l.134-1.971c-.861-.064-1.225-.134-2.087-.134-2.75,0-4.275,1.889-4.275,4.537,0,1.575.746,4.357,4.077,4.357a9.331,9.331,0,0,0,2.368-.134l-.083-1.971Zm8.444-8.135h2.616V26.96H158.45Zm44.028-2.317h-2.616v5.067a2.307,2.307,0,0,0-2.253-1.41c-2.17,0-3.031,1.921-3.031,4.242,0,2.75,1.092,4.652,3.031,4.652a2.465,2.465,0,0,0,2.354-1.506c.032.594.064,1.046.1,1.377h2.487c-.032-.4-.064-.843-.064-1.939V26.965Zm-5.187,8.116c0-1.373.1-2.667,1.258-2.667,1.059,0,1.308,1.294,1.308,2.667,0,.995-.23,2.552-1.308,2.552C197.356,37.628,197.291,35.974,197.291,35.076Zm14.063,4.307h2.616v-3.86c0-1.257.184-2.584,1.7-2.584h.88V30.751h-.382a2.319,2.319,0,0,0-2.4,1.557c-.051-.511-.083-1.041-.1-1.557h-2.386a16.512,16.512,0,0,1,.065,1.806v6.826Zm13.57,0h2.616V26.965h-2.616V39.388Zm-45.465,0h2.814v-5.2h3.915v-2.17h-3.915V29.134h4.077v-2.17H179.46V39.388Zm37.8-6.444a5.8,5.8,0,0,1,2.483-.511c.382,0,1.608-.083,1.608,1.571h-.8c-.912,0-4.275.018-4.275,2.9a2.489,2.489,0,0,0,2.667,2.616,2.529,2.529,0,0,0,2.368-1.327l.1,1.193h2.386c-.051-.58-.064-1.161-.064-2.437V33.8c0-1.921-.7-3.183-3.727-3.183-.944,0-1.879.134-2.745.134v2.188Zm4.086,2.782c0,2.105-1.327,2.137-1.557,2.137a1.015,1.015,0,0,1-1.124-1.129c0-1.442,1.64-1.506,2.686-1.506v.5ZM137.979,34.33c0-.465,0-2.119,1.34-2.119,1.078,0,1.359,1.027,1.359,2.119Zm5.085.8c0-4.5-2.967-4.5-3.745-4.5-2.469,0-3.828,2.105-3.828,4.422,0,2.635,1.34,4.473,4.372,4.473a15.853,15.853,0,0,0,2.732-.134l-.051-1.971a7.055,7.055,0,0,1-2.437.313,1.925,1.925,0,0,1-2.137-1.971h5.085v-.631Zm9.563-.8c0-.465,0-2.119,1.34-2.119,1.078,0,1.359,1.027,1.359,2.119Zm5.085.8c0-4.5-2.967-4.5-3.745-4.5-2.469,0-3.828,2.105-3.828,4.422,0,2.635,1.34,4.473,4.371,4.473a15.852,15.852,0,0,0,2.732-.134l-.051-1.971a7.069,7.069,0,0,1-2.437.313,1.925,1.925,0,0,1-2.137-1.971H157.7v-.631Zm31.236-.8c0-.465,0-2.119,1.34-2.119,1.078,0,1.359,1.027,1.359,2.119Zm5.085.8c0-4.5-2.966-4.5-3.745-4.5-2.469,0-3.828,2.105-3.828,4.422,0,2.635,1.34,4.473,4.376,4.473a15.853,15.853,0,0,0,2.732-.134l-.051-1.971a7.056,7.056,0,0,1-2.437.313,1.925,1.925,0,0,1-2.137-1.971h5.086v-.631Zm11.585-.8c0-.465,0-2.119,1.34-2.119,1.078,0,1.359,1.027,1.359,2.119Zm5.085.8c0-4.5-2.967-4.5-3.745-4.5-2.469,0-3.828,2.105-3.828,4.422,0,2.635,1.34,4.473,4.371,4.473a15.853,15.853,0,0,0,2.732-.134l-.051-1.971a7.055,7.055,0,0,1-2.437.313,1.925,1.925,0,0,1-2.137-1.971H210.7v-.631Zm-42.079-2.188a5.8,5.8,0,0,1,2.483-.511c.382,0,1.608-.083,1.608,1.571h-.8c-.912,0-4.275.018-4.275,2.9a2.489,2.489,0,0,0,2.667,2.616,2.529,2.529,0,0,0,2.368-1.327l.1,1.193h2.386c-.051-.58-.064-1.161-.064-2.437V33.8c0-1.921-.7-3.183-3.727-3.183-.944,0-1.879.134-2.745.134v2.188Zm4.086,2.782c0,2.105-1.327,2.137-1.557,2.137a1.015,1.015,0,0,1-1.124-1.129c0-1.442,1.64-1.506,2.686-1.506v.5ZM158.45,39.383V30.751h4.533V28.978l2.552-.811v2.584h1.691v1.838h-1.691v3.957c0,.843.382,1.078.88,1.078a1.951,1.951,0,0,0,.861-.184v1.939a7.619,7.619,0,0,1-1.824.134,2.3,2.3,0,0,1-2.534-2.552V32.589h-1.847v6.794h-2.616Z" transform="translate(-17937.826 -22843.012)" fill="#333e7a"/>
  </g>
</svg>
